0
SECTION
2
HEADER
9
$ACADVER
1
AC1009
0
ENDSEC
0
SECTION
2
TABLES
0
TABLE
2
LAYER
70
8
0
LAYER
2
WALLS
70
0
62
7
6
CONTINUOUS
0
LAYER
2
DOORS
70
0
62
1
6
CONTINUOUS
0
LAYER
2
EGRESS
70
0
62
4
6
CONTINUOUS
0
LAYER
2
DESKS
70
0
62
3
6
CONTINUOUS
0
LAYER
2
CHAIRS
70
0
62
2
6
CONTINUOUS
0
LAYER
2
STORAGE
70
0
62
6
6
CONTINUOUS
0
LAYER
2
COLLABORATION
70
0
62
5
6
CONTINUOUS
0
LAYER
2
ACCESSORIES
70
0
62
8
6
CONTINUOUS
0
ENDTAB
0
ENDSEC
0
SECTION
2
ENTITIES
0
POLYLINE
8
WALLS
66
1
70
1
0
VERTEX
8
WALLS
10
0.00
20
0.00
30
0.0
0
VERTEX
8
WALLS
10
7200.00
20
0.00
30
0.0
0
VERTEX
8
WALLS
10
7200.00
20
5400.00
30
0.0
0
VERTEX
8
WALLS
10
0.00
20
5400.00
30
0.0
0
SEQEND
0
LINE
8
DOORS
10
500.00
20
0.00
30
0.0
11
1500.00
21
0.00
31
0.0
0
TEXT
8
DOORS
10
1000.00
20
50.00
30
0.0
40
150.00
1
D1
0
LINE
8
EGRESS
10
1000.00
20
0.00
30
0.0
11
6600.00
21
4800.00
31
0.0
0
POLYLINE
8
DESKS
66
1
70
1
0
VERTEX
8
DESKS
10
4700.00
20
300.00
30
0.0
0
VERTEX
8
DESKS
10
6300.00
20
300.00
30
0.0
0
VERTEX
8
DESKS
10
6300.00
20
900.00
30
0.0
0
VERTEX
8
DESKS
10
4700.00
20
900.00
30
0.0
0
SEQEND
0
TEXT
8
DESKS
10
4750.00
20
600.00
30
0.0
40
100.00
1
P001
0
POLYLINE
8
CHAIRS
66
1
70
1
0
VERTEX
8
CHAIRS
10
4800.00
20
1800.00
30
0.0
0
VERTEX
8
CHAIRS
10
5320.00
20
1800.00
30
0.0
0
VERTEX
8
CHAIRS
10
5320.00
20
2320.00
30
0.0
0
VERTEX
8
CHAIRS
10
4800.00
20
2320.00
30
0.0
0
SEQEND
0
TEXT
8
CHAIRS
10
4850.00
20
2060.00
30
0.0
40
100.00
1
P002
0
POLYLINE
8
CHAIRS
66
1
70
1
0
VERTEX
8
CHAIRS
10
5600.00
20
1800.00
30
0.0
0
VERTEX
8
CHAIRS
10
6120.00
20
1800.00
30
0.0
0
VERTEX
8
CHAIRS
10
6120.00
20
2320.00
30
0.0
0
VERTEX
8
CHAIRS
10
5600.00
20
2320.00
30
0.0
0
SEQEND
0
TEXT
8
CHAIRS
10
5650.00
20
2060.00
30
0.0
40
100.00
1
P003
0
POLYLINE
8
DESKS
66
1
70
1
0
VERTEX
8
DESKS
10
1700.00
20
300.00
30
0.0
0
VERTEX
8
DESKS
10
3300.00
20
300.00
30
0.0
0
VERTEX
8
DESKS
10
3300.00
20
900.00
30
0.0
0
VERTEX
8
DESKS
10
1700.00
20
900.00
30
0.0
0
SEQEND
0
TEXT
8
DESKS
10
1750.00
20
600.00
30
0.0
40
100.00
1
P004
0
POLYLINE
8
CHAIRS
66
1
70
1
0
VERTEX
8
CHAIRS
10
600.00
20
4700.00
30
0.0
0
VERTEX
8
CHAIRS
10
1120.00
20
4700.00
30
0.0
0
VERTEX
8
CHAIRS
10
1120.00
20
5220.00
30
0.0
0
VERTEX
8
CHAIRS
10
600.00
20
5220.00
30
0.0
0
SEQEND
0
TEXT
8
CHAIRS
10
650.00
20
4960.00
30
0.0
40
100.00
1
P005
0
POLYLINE
8
CHAIRS
66
1
70
1
0
VERTEX
8
CHAIRS
10
1100.00
20
1400.00
30
0.0
0
VERTEX
8
CHAIRS
10
1620.00
20
1400.00
30
0.0
0
VERTEX
8
CHAIRS
10
1620.00
20
1920.00
30
0.0
0
VERTEX
8
CHAIRS
10
1100.00
20
1920.00
30
0.0
0
SEQEND
0
TEXT
8
CHAIRS
10
1150.00
20
1660.00
30
0.0
40
100.00
1
P006
0
POLYLINE
8
DESKS
66
1
70
1
0
VERTEX
8
DESKS
10
2600.00
20
3600.00
30
0.0
0
VERTEX
8
DESKS
10
4200.00
20
3600.00
30
0.0
0
VERTEX
8
DESKS
10
4200.00
20
4200.00
30
0.0
0
VERTEX
8
DESKS
10
2600.00
20
4200.00
30
0.0
0
SEQEND
0
TEXT
8
DESKS
10
2650.00
20
3900.00
30
0.0
40
100.00
1
P007
0
POLYLINE
8
DESKS
66
1
70
1
0
VERTEX
8
DESKS
10
600.00
20
2900.00
30
0.0
0
VERTEX
8
DESKS
10
2200.00
20
2900.00
30
0.0
0
VERTEX
8
DESKS
10
2200.00
20
3500.00
30
0.0
0
VERTEX
8
DESKS
10
600.00
20
3500.00
30
0.0
0
SEQEND
0
TEXT
8
DESKS
10
650.00
20
3200.00
30
0.0
40
100.00
1
P008
0
POLYLINE
8
DESKS
66
1
70
1
0
VERTEX
8
DESKS
10
5500.00
20
2400.00
30
0.0
0
VERTEX
8
DESKS
10
7100.00
20
2400.00
30
0.0
0
VERTEX
8
DESKS
10
7100.00
20
3000.00
30
0.0
0
VERTEX
8
DESKS
10
5500.00
20
3000.00
30
0.0
0
SEQEND
0
TEXT
8
DESKS
10
5550.00
20
2700.00
30
0.0
40
100.00
1
P009
0
POLYLINE
8
CHAIRS
66
1
70
1
0
VERTEX
8
CHAIRS
10
4200.00
20
4800.00
30
0.0
0
VERTEX
8
CHAIRS
10
4720.00
20
4800.00
30
0.0
0
VERTEX
8
CHAIRS
10
4720.00
20
5320.00
30
0.0
0
VERTEX
8
CHAIRS
10
4200.00
20
5320.00
30
0.0
0
SEQEND
0
TEXT
8
CHAIRS
10
4250.00
20
5060.00
30
0.0
40
100.00
1
P010
0
POLYLINE
8
CHAIRS
66
1
70
1
0
VERTEX
8
CHAIRS
10
2700.00
20
3000.00
30
0.0
0
VERTEX
8
CHAIRS
10
3220.00
20
3000.00
30
0.0
0
VERTEX
8
CHAIRS
10
3220.00
20
3520.00
30
0.0
0
VERTEX
8
CHAIRS
10
2700.00
20
3520.00
30
0.0
0
SEQEND
0
TEXT
8
CHAIRS
10
2750.00
20
3260.00
30
0.0
40
100.00
1
P011
0
POLYLINE
8
CHAIRS
66
1
70
1
0
VERTEX
8
CHAIRS
10
3400.00
20
600.00
30
0.0
0
VERTEX
8
CHAIRS
10
3920.00
20
600.00
30
0.0
0
VERTEX
8
CHAIRS
10
3920.00
20
1120.00
30
0.0
0
VERTEX
8
CHAIRS
10
3400.00
20
1120.00
30
0.0
0
SEQEND
0
TEXT
8
CHAIRS
10
3450.00
20
860.00
30
0.0
40
100.00
1
P012
0
POLYLINE
8
CHAIRS
66
1
70
1
0
VERTEX
8
CHAIRS
10
6500.00
20
600.00
30
0.0
0
VERTEX
8
CHAIRS
10
7020.00
20
600.00
30
0.0
0
VERTEX
8
CHAIRS
10
7020.00
20
1120.00
30
0.0
0
VERTEX
8
CHAIRS
10
6500.00
20
1120.00
30
0.0
0
SEQEND
0
TEXT
8
CHAIRS
10
6550.00
20
860.00
30
0.0
40
100.00
1
P013
0
POLYLINE
8
CHAIRS
66
1
70
1
0
VERTEX
8
CHAIRS
10
1900.00
20
2200.00
30
0.0
0
VERTEX
8
CHAIRS
10
2420.00
20
2200.00
30
0.0
0
VERTEX
8
CHAIRS
10
2420.00
20
2720.00
30
0.0
0
VERTEX
8
CHAIRS
10
1900.00
20
2720.00
30
0.0
0
SEQEND
0
TEXT
8
CHAIRS
10
1950.00
20
2460.00
30
0.0
40
100.00
1
P014
0
POLYLINE
8
CHAIRS
66
1
70
1
0
VERTEX
8
CHAIRS
10
4100.00
20
1200.00
30
0.0
0
VERTEX
8
CHAIRS
10
4620.00
20
1200.00
30
0.0
0
VERTEX
8
CHAIRS
10
4620.00
20
1720.00
30
0.0
0
VERTEX
8
CHAIRS
10
4100.00
20
1720.00
30
0.0
0
SEQEND
0
TEXT
8
CHAIRS
10
4150.00
20
1460.00
30
0.0
40
100.00
1
P015
0
POLYLINE
8
CHAIRS
66
1
70
1
0
VERTEX
8
CHAIRS
10
2000.00
20
4400.00
30
0.0
0
VERTEX
8
CHAIRS
10
2520.00
20
4400.00
30
0.0
0
VERTEX
8
CHAIRS
10
2520.00
20
4920.00
30
0.0
0
VERTEX
8
CHAIRS
10
2000.00
20
4920.00
30
0.0
0
SEQEND
0
TEXT
8
CHAIRS
10
2050.00
20
4660.00
30
0.0
40
100.00
1
P016
0
POLYLINE
8
CHAIRS
66
1
70
1
0
VERTEX
8
CHAIRS
10
6300.00
20
1200.00
30
0.0
0
VERTEX
8
CHAIRS
10
6820.00
20
1200.00
30
0.0
0
VERTEX
8
CHAIRS
10
6820.00
20
1720.00
30
0.0
0
VERTEX
8
CHAIRS
10
6300.00
20
1720.00
30
0.0
0
SEQEND
0
TEXT
8
CHAIRS
10
6350.00
20
1460.00
30
0.0
40
100.00
1
P017
0
POLYLINE
8
STORAGE
66
1
70
1
0
VERTEX
8
STORAGE
10
1200.00
20
4400.00
30
0.0
0
VERTEX
8
STORAGE
10
2000.00
20
4400.00
30
0.0
0
VERTEX
8
STORAGE
10
2000.00
20
4800.00
30
0.0
0
VERTEX
8
STORAGE
10
1200.00
20
4800.00
30
0.0
0
SEQEND
0
TEXT
8
STORAGE
10
1250.00
20
4600.00
30
0.0
40
100.00
1
P018
0
POLYLINE
8
STORAGE
66
1
70
1
0
VERTEX
8
STORAGE
10
4300.00
20
4400.00
30
0.0
0
VERTEX
8
STORAGE
10
5100.00
20
4400.00
30
0.0
0
VERTEX
8
STORAGE
10
5100.00
20
4800.00
30
0.0
0
VERTEX
8
STORAGE
10
4300.00
20
4800.00
30
0.0
0
SEQEND
0
TEXT
8
STORAGE
10
4350.00
20
4600.00
30
0.0
40
100.00
1
P019
0
POLYLINE
8
COLLABORATION
66
1
70
1
0
VERTEX
8
COLLABORATION
10
700.00
20
2200.00
30
0.0
0
VERTEX
8
COLLABORATION
10
1900.00
20
2200.00
30
0.0
0
VERTEX
8
COLLABORATION
10
1900.00
20
2900.00
30
0.0
0
VERTEX
8
COLLABORATION
10
700.00
20
2900.00
30
0.0
0
SEQEND
0
TEXT
8
COLLABORATION
10
750.00
20
2550.00
30
0.0
40
100.00
1
P020
0
ENDSEC
0
EOF
