0
SECTION
2
HEADER
9
$ACADVER
1
AC1009
0
ENDSEC
0
SECTION
2
TABLES
0
TABLE
2
LAYER
70
8
0
LAYER
2
WALLS
70
0
62
7
6
CONTINUOUS
0
LAYER
2
DOORS
70
0
62
1
6
CONTINUOUS
0
LAYER
2
EGRESS
70
0
62
4
6
CONTINUOUS
0
LAYER
2
DESKS
70
0
62
3
6
CONTINUOUS
0
LAYER
2
CHAIRS
70
0
62
2
6
CONTINUOUS
0
LAYER
2
STORAGE
70
0
62
6
6
CONTINUOUS
0
LAYER
2
COLLABORATION
70
0
62
5
6
CONTINUOUS
0
LAYER
2
ACCESSORIES
70
0
62
8
6
CONTINUOUS
0
ENDTAB
0
ENDSEC
0
SECTION
2
ENTITIES
0
POLYLINE
8
WALLS
66
1
70
1
0
VERTEX
8
WALLS
10
0.00
20
0.00
30
0.0
0
VERTEX
8
WALLS
10
8400.00
20
0.00
30
0.0
0
VERTEX
8
WALLS
10
8400.00
20
7600.00
30
0.0
0
VERTEX
8
WALLS
10
0.00
20
7600.00
30
0.0
0
SEQEND
0
LINE
8
DOORS
10
0.00
20
900.00
30
0.0
11
0.00
21
2100.00
31
0.0
0
TEXT
8
DOORS
10
0.00
20
1550.00
30
0.0
40
150.00
1
D1
0
LINE
8
DOORS
10
8400.00
20
5600.00
30
0.0
11
8400.00
21
6600.00
31
0.0
0
TEXT
8
DOORS
10
8400.00
20
6150.00
30
0.0
40
150.00
1
D2
0
LINE
8
EGRESS
10
0.00
20
1500.00
30
0.0
11
7900.00
21
6200.00
31
0.0
0
POLYLINE
8
DESKS
66
1
70
1
0
VERTEX
8
DESKS
10
2400.00
20
300.00
30
0.0
0
VERTEX
8
DESKS
10
3600.00
20
300.00
30
0.0
0
VERTEX
8
DESKS
10
3600.00
20
900.00
30
0.0
0
VERTEX
8
DESKS
10
2400.00
20
900.00
30
0.0
0
SEQEND
0
TEXT
8
DESKS
10
2450.00
20
600.00
30
0.0
40
100.00
1
P001
0
POLYLINE
8
CHAIRS
66
1
70
1
0
VERTEX
8
CHAIRS
10
2700.00
20
1800.00
30
0.0
0
VERTEX
8
CHAIRS
10
3220.00
20
1800.00
30
0.0
0
VERTEX
8
CHAIRS
10
3220.00
20
2320.00
30
0.0
0
VERTEX
8
CHAIRS
10
2700.00
20
2320.00
30
0.0
0
SEQEND
0
TEXT
8
CHAIRS
10
2750.00
20
2060.00
30
0.0
40
100.00
1
P002
0
POLYLINE
8
DESKS
66
1
70
1
0
VERTEX
8
DESKS
10
3600.00
20
300.00
30
0.0
0
VERTEX
8
DESKS
10
4800.00
20
300.00
30
0.0
0
VERTEX
8
DESKS
10
4800.00
20
900.00
30
0.0
0
VERTEX
8
DESKS
10
3600.00
20
900.00
30
0.0
0
SEQEND
0
TEXT
8
DESKS
10
3650.00
20
600.00
30
0.0
40
100.00
1
P003
0
POLYLINE
8
CHAIRS
66
1
70
1
0
VERTEX
8
CHAIRS
10
4200.00
20
1800.00
30
0.0
0
VERTEX
8
CHAIRS
10
4720.00
20
1800.00
30
0.0
0
VERTEX
8
CHAIRS
10
4720.00
20
2320.00
30
0.0
0
VERTEX
8
CHAIRS
10
4200.00
20
2320.00
30
0.0
0
SEQEND
0
TEXT
8
CHAIRS
10
4250.00
20
2060.00
30
0.0
40
100.00
1
P004
0
POLYLINE
8
DESKS
66
1
70
1
0
VERTEX
8
DESKS
10
4800.00
20
300.00
30
0.0
0
VERTEX
8
DESKS
10
6000.00
20
300.00
30
0.0
0
VERTEX
8
DESKS
10
6000.00
20
900.00
30
0.0
0
VERTEX
8
DESKS
10
4800.00
20
900.00
30
0.0
0
SEQEND
0
TEXT
8
DESKS
10
4850.00
20
600.00
30
0.0
40
100.00
1
P005
0
POLYLINE
8
CHAIRS
66
1
70
1
0
VERTEX
8
CHAIRS
10
5100.00
20
1800.00
30
0.0
0
VERTEX
8
CHAIRS
10
5620.00
20
1800.00
30
0.0
0
VERTEX
8
CHAIRS
10
5620.00
20
2320.00
30
0.0
0
VERTEX
8
CHAIRS
10
5100.00
20
2320.00
30
0.0
0
SEQEND
0
TEXT
8
CHAIRS
10
5150.00
20
2060.00
30
0.0
40
100.00
1
P006
0
POLYLINE
8
DESKS
66
1
70
1
0
VERTEX
8
DESKS
10
6000.00
20
300.00
30
0.0
0
VERTEX
8
DESKS
10
7200.00
20
300.00
30
0.0
0
VERTEX
8
DESKS
10
7200.00
20
900.00
30
0.0
0
VERTEX
8
DESKS
10
6000.00
20
900.00
30
0.0
0
SEQEND
0
TEXT
8
DESKS
10
6050.00
20
600.00
30
0.0
40
100.00
1
P007
0
POLYLINE
8
CHAIRS
66
1
70
1
0
VERTEX
8
CHAIRS
10
6600.00
20
1800.00
30
0.0
0
VERTEX
8
CHAIRS
10
7120.00
20
1800.00
30
0.0
0
VERTEX
8
CHAIRS
10
7120.00
20
2320.00
30
0.0
0
VERTEX
8
CHAIRS
10
6600.00
20
2320.00
30
0.0
0
SEQEND
0
TEXT
8
CHAIRS
10
6650.00
20
2060.00
30
0.0
40
100.00
1
P008
0
POLYLINE
8
DESKS
66
1
70
1
0
VERTEX
8
DESKS
10
300.00
20
3220.00
30
0.0
0
VERTEX
8
DESKS
10
1500.00
20
3220.00
30
0.0
0
VERTEX
8
DESKS
10
1500.00
20
3820.00
30
0.0
0
VERTEX
8
DESKS
10
300.00
20
3820.00
30
0.0
0
SEQEND
0
TEXT
8
DESKS
10
350.00
20
3520.00
30
0.0
40
100.00
1
P009
0
POLYLINE
8
CHAIRS
66
1
70
1
0
VERTEX
8
CHAIRS
10
600.00
20
4720.00
30
0.0
0
VERTEX
8
CHAIRS
10
1120.00
20
4720.00
30
0.0
0
VERTEX
8
CHAIRS
10
1120.00
20
5240.00
30
0.0
0
VERTEX
8
CHAIRS
10
600.00
20
5240.00
30
0.0
0
SEQEND
0
TEXT
8
CHAIRS
10
650.00
20
4980.00
30
0.0
40
100.00
1
P010
0
POLYLINE
8
DESKS
66
1
70
1
0
VERTEX
8
DESKS
10
1200.00
20
300.00
30
0.0
0
VERTEX
8
DESKS
10
2400.00
20
300.00
30
0.0
0
VERTEX
8
DESKS
10
2400.00
20
900.00
30
0.0
0
VERTEX
8
DESKS
10
1200.00
20
900.00
30
0.0
0
SEQEND
0
TEXT
8
DESKS
10
1250.00
20
600.00
30
0.0
40
100.00
1
P011
0
POLYLINE
8
CHAIRS
66
1
70
1
0
VERTEX
8
CHAIRS
10
7800.00
20
7000.00
30
0.0
0
VERTEX
8
CHAIRS
10
8320.00
20
7000.00
30
0.0
0
VERTEX
8
CHAIRS
10
8320.00
20
7520.00
30
0.0
0
VERTEX
8
CHAIRS
10
7800.00
20
7520.00
30
0.0
0
SEQEND
0
TEXT
8
CHAIRS
10
7850.00
20
7260.00
30
0.0
40
100.00
1
P012
0
POLYLINE
8
DESKS
66
1
70
1
0
VERTEX
8
DESKS
10
1500.00
20
3220.00
30
0.0
0
VERTEX
8
DESKS
10
2700.00
20
3220.00
30
0.0
0
VERTEX
8
DESKS
10
2700.00
20
3820.00
30
0.0
0
VERTEX
8
DESKS
10
1500.00
20
3820.00
30
0.0
0
SEQEND
0
TEXT
8
DESKS
10
1550.00
20
3520.00
30
0.0
40
100.00
1
P013
0
POLYLINE
8
CHAIRS
66
1
70
1
0
VERTEX
8
CHAIRS
10
2100.00
20
4720.00
30
0.0
0
VERTEX
8
CHAIRS
10
2620.00
20
4720.00
30
0.0
0
VERTEX
8
CHAIRS
10
2620.00
20
5240.00
30
0.0
0
VERTEX
8
CHAIRS
10
2100.00
20
5240.00
30
0.0
0
SEQEND
0
TEXT
8
CHAIRS
10
2150.00
20
4980.00
30
0.0
40
100.00
1
P014
0
POLYLINE
8
DESKS
66
1
70
1
0
VERTEX
8
DESKS
10
2700.00
20
3220.00
30
0.0
0
VERTEX
8
DESKS
10
3900.00
20
3220.00
30
0.0
0
VERTEX
8
DESKS
10
3900.00
20
3820.00
30
0.0
0
VERTEX
8
DESKS
10
2700.00
20
3820.00
30
0.0
0
SEQEND
0
TEXT
8
DESKS
10
2750.00
20
3520.00
30
0.0
40
100.00
1
P015
0
POLYLINE
8
CHAIRS
66
1
70
1
0
VERTEX
8
CHAIRS
10
3000.00
20
4720.00
30
0.0
0
VERTEX
8
CHAIRS
10
3520.00
20
4720.00
30
0.0
0
VERTEX
8
CHAIRS
10
3520.00
20
5240.00
30
0.0
0
VERTEX
8
CHAIRS
10
3000.00
20
5240.00
30
0.0
0
SEQEND
0
TEXT
8
CHAIRS
10
3050.00
20
4980.00
30
0.0
40
100.00
1
P016
0
POLYLINE
8
DESKS
66
1
70
1
0
VERTEX
8
DESKS
10
3900.00
20
3220.00
30
0.0
0
VERTEX
8
DESKS
10
5100.00
20
3220.00
30
0.0
0
VERTEX
8
DESKS
10
5100.00
20
3820.00
30
0.0
0
VERTEX
8
DESKS
10
3900.00
20
3820.00
30
0.0
0
SEQEND
0
TEXT
8
DESKS
10
3950.00
20
3520.00
30
0.0
40
100.00
1
P017
0
POLYLINE
8
CHAIRS
66
1
70
1
0
VERTEX
8
CHAIRS
10
5400.00
20
5900.00
30
0.0
0
VERTEX
8
CHAIRS
10
5920.00
20
5900.00
30
0.0
0
VERTEX
8
CHAIRS
10
5920.00
20
6420.00
30
0.0
0
VERTEX
8
CHAIRS
10
5400.00
20
6420.00
30
0.0
0
SEQEND
0
TEXT
8
CHAIRS
10
5450.00
20
6160.00
30
0.0
40
100.00
1
P018
0
POLYLINE
8
DESKS
66
1
70
1
0
VERTEX
8
DESKS
10
5100.00
20
3220.00
30
0.0
0
VERTEX
8
DESKS
10
6300.00
20
3220.00
30
0.0
0
VERTEX
8
DESKS
10
6300.00
20
3820.00
30
0.0
0
VERTEX
8
DESKS
10
5100.00
20
3820.00
30
0.0
0
SEQEND
0
TEXT
8
DESKS
10
5150.00
20
3520.00
30
0.0
40
100.00
1
P019
0
POLYLINE
8
CHAIRS
66
1
70
1
0
VERTEX
8
CHAIRS
10
7700.00
20
3800.00
30
0.0
0
VERTEX
8
CHAIRS
10
8220.00
20
3800.00
30
0.0
0
VERTEX
8
CHAIRS
10
8220.00
20
4320.00
30
0.0
0
VERTEX
8
CHAIRS
10
7700.00
20
4320.00
30
0.0
0
SEQEND
0
TEXT
8
CHAIRS
10
7750.00
20
4060.00
30
0.0
40
100.00
1
P020
0
POLYLINE
8
DESKS
66
1
70
1
0
VERTEX
8
DESKS
10
6300.00
20
3220.00
30
0.0
0
VERTEX
8
DESKS
10
7500.00
20
3220.00
30
0.0
0
VERTEX
8
DESKS
10
7500.00
20
3820.00
30
0.0
0
VERTEX
8
DESKS
10
6300.00
20
3820.00
30
0.0
0
SEQEND
0
TEXT
8
DESKS
10
6350.00
20
3520.00
30
0.0
40
100.00
1
P021
0
POLYLINE
8
CHAIRS
66
1
70
1
0
VERTEX
8
CHAIRS
10
1300.00
20
7000.00
30
0.0
0
VERTEX
8
CHAIRS
10
1820.00
20
7000.00
30
0.0
0
VERTEX
8
CHAIRS
10
1820.00
20
7520.00
30
0.0
0
VERTEX
8
CHAIRS
10
1300.00
20
7520.00
30
0.0
0
SEQEND
0
TEXT
8
CHAIRS
10
1350.00
20
7260.00
30
0.0
40
100.00
1
P022
0
POLYLINE
8
DESKS
66
1
70
1
0
VERTEX
8
DESKS
10
3600.00
20
6800.00
30
0.0
0
VERTEX
8
DESKS
10
4800.00
20
6800.00
30
0.0
0
VERTEX
8
DESKS
10
4800.00
20
7400.00
30
0.0
0
VERTEX
8
DESKS
10
3600.00
20
7400.00
30
0.0
0
SEQEND
0
TEXT
8
DESKS
10
3650.00
20
7100.00
30
0.0
40
100.00
1
P023
0
POLYLINE
8
CHAIRS
66
1
70
1
0
VERTEX
8
CHAIRS
10
7700.00
20
600.00
30
0.0
0
VERTEX
8
CHAIRS
10
8220.00
20
600.00
30
0.0
0
VERTEX
8
CHAIRS
10
8220.00
20
1120.00
30
0.0
0
VERTEX
8
CHAIRS
10
7700.00
20
1120.00
30
0.0
0
SEQEND
0
TEXT
8
CHAIRS
10
7750.00
20
860.00
30
0.0
40
100.00
1
P024
0
POLYLINE
8
CHAIRS
66
1
70
1
0
VERTEX
8
CHAIRS
10
1200.00
20
900.00
30
0.0
0
VERTEX
8
CHAIRS
10
1720.00
20
900.00
30
0.0
0
VERTEX
8
CHAIRS
10
1720.00
20
1420.00
30
0.0
0
VERTEX
8
CHAIRS
10
1200.00
20
1420.00
30
0.0
0
SEQEND
0
TEXT
8
CHAIRS
10
1250.00
20
1160.00
30
0.0
40
100.00
1
P025
0
POLYLINE
8
CHAIRS
66
1
70
1
0
VERTEX
8
CHAIRS
10
3600.00
20
6200.00
30
0.0
0
VERTEX
8
CHAIRS
10
4120.00
20
6200.00
30
0.0
0
VERTEX
8
CHAIRS
10
4120.00
20
6720.00
30
0.0
0
VERTEX
8
CHAIRS
10
3600.00
20
6720.00
30
0.0
0
SEQEND
0
TEXT
8
CHAIRS
10
3650.00
20
6460.00
30
0.0
40
100.00
1
P026
0
POLYLINE
8
CHAIRS
66
1
70
1
0
VERTEX
8
CHAIRS
10
6200.00
20
3900.00
30
0.0
0
VERTEX
8
CHAIRS
10
6720.00
20
3900.00
30
0.0
0
VERTEX
8
CHAIRS
10
6720.00
20
4420.00
30
0.0
0
VERTEX
8
CHAIRS
10
6200.00
20
4420.00
30
0.0
0
SEQEND
0
TEXT
8
CHAIRS
10
6250.00
20
4160.00
30
0.0
40
100.00
1
P027
0
POLYLINE
8
CHAIRS
66
1
70
1
0
VERTEX
8
CHAIRS
10
6300.00
20
6700.00
30
0.0
0
VERTEX
8
CHAIRS
10
6820.00
20
6700.00
30
0.0
0
VERTEX
8
CHAIRS
10
6820.00
20
7220.00
30
0.0
0
VERTEX
8
CHAIRS
10
6300.00
20
7220.00
30
0.0
0
SEQEND
0
TEXT
8
CHAIRS
10
6350.00
20
6960.00
30
0.0
40
100.00
1
P028
0
POLYLINE
8
CHAIRS
66
1
70
1
0
VERTEX
8
CHAIRS
10
3400.00
20
1800.00
30
0.0
0
VERTEX
8
CHAIRS
10
3920.00
20
1800.00
30
0.0
0
VERTEX
8
CHAIRS
10
3920.00
20
2320.00
30
0.0
0
VERTEX
8
CHAIRS
10
3400.00
20
2320.00
30
0.0
0
SEQEND
0
TEXT
8
CHAIRS
10
3450.00
20
2060.00
30
0.0
40
100.00
1
P029
0
POLYLINE
8
CHAIRS
66
1
70
1
0
VERTEX
8
CHAIRS
10
5800.00
20
1800.00
30
0.0
0
VERTEX
8
CHAIRS
10
6320.00
20
1800.00
30
0.0
0
VERTEX
8
CHAIRS
10
6320.00
20
2320.00
30
0.0
0
VERTEX
8
CHAIRS
10
5800.00
20
2320.00
30
0.0
0
SEQEND
0
TEXT
8
CHAIRS
10
5850.00
20
2060.00
30
0.0
40
100.00
1
P030
0
POLYLINE
8
STORAGE
66
1
70
1
0
VERTEX
8
STORAGE
10
2800.00
20
7100.00
30
0.0
0
VERTEX
8
STORAGE
10
3600.00
20
7100.00
30
0.0
0
VERTEX
8
STORAGE
10
3600.00
20
7500.00
30
0.0
0
VERTEX
8
STORAGE
10
2800.00
20
7500.00
30
0.0
0
SEQEND
0
TEXT
8
STORAGE
10
2850.00
20
7300.00
30
0.0
40
100.00
1
P031
0
POLYLINE
8
STORAGE
66
1
70
1
0
VERTEX
8
STORAGE
10
7600.00
20
2400.00
30
0.0
0
VERTEX
8
STORAGE
10
8000.00
20
2400.00
30
0.0
0
VERTEX
8
STORAGE
10
8000.00
20
3200.00
30
0.0
0
VERTEX
8
STORAGE
10
7600.00
20
3200.00
30
0.0
0
SEQEND
0
TEXT
8
STORAGE
10
7650.00
20
2800.00
30
0.0
40
100.00
1
P032
0
POLYLINE
8
COLLABORATION
66
1
70
1
0
VERTEX
8
COLLABORATION
10
600.00
20
6300.00
30
0.0
0
VERTEX
8
COLLABORATION
10
1800.00
20
6300.00
30
0.0
0
VERTEX
8
COLLABORATION
10
1800.00
20
7000.00
30
0.0
0
VERTEX
8
COLLABORATION
10
600.00
20
7000.00
30
0.0
0
SEQEND
0
TEXT
8
COLLABORATION
10
650.00
20
6650.00
30
0.0
40
100.00
1
P033
0
POLYLINE
8
COLLABORATION
66
1
70
1
0
VERTEX
8
COLLABORATION
10
4200.00
20
5500.00
30
0.0
0
VERTEX
8
COLLABORATION
10
5400.00
20
5500.00
30
0.0
0
VERTEX
8
COLLABORATION
10
5400.00
20
6200.00
30
0.0
0
VERTEX
8
COLLABORATION
10
4200.00
20
6200.00
30
0.0
0
SEQEND
0
TEXT
8
COLLABORATION
10
4250.00
20
5850.00
30
0.0
40
100.00
1
P034
0
POLYLINE
8
ACCESSORIES
66
1
70
1
0
VERTEX
8
ACCESSORIES
10
500.00
20
2800.00
30
0.0
0
VERTEX
8
ACCESSORIES
10
800.00
20
2800.00
30
0.0
0
VERTEX
8
ACCESSORIES
10
800.00
20
2980.00
30
0.0
0
VERTEX
8
ACCESSORIES
10
500.00
20
2980.00
30
0.0
0
SEQEND
0
TEXT
8
ACCESSORIES
10
550.00
20
2890.00
30
0.0
40
60.00
1
P035
0
POLYLINE
8
ACCESSORIES
66
1
70
1
0
VERTEX
8
ACCESSORIES
10
900.00
20
3000.00
30
0.0
0
VERTEX
8
ACCESSORIES
10
1200.00
20
3000.00
30
0.0
0
VERTEX
8
ACCESSORIES
10
1200.00
20
3180.00
30
0.0
0
VERTEX
8
ACCESSORIES
10
900.00
20
3180.00
30
0.0
0
SEQEND
0
TEXT
8
ACCESSORIES
10
950.00
20
3090.00
30
0.0
40
60.00
1
P036
0
ENDSEC
0
EOF
