0
SECTION
2
HEADER
9
$ACADVER
1
AC1009
0
ENDSEC
0
SECTION
2
TABLES
0
TABLE
2
LAYER
70
8
0
LAYER
2
WALLS
70
0
62
7
6
CONTINUOUS
0
LAYER
2
DOORS
70
0
62
1
6
CONTINUOUS
0
LAYER
2
EGRESS
70
0
62
4
6
CONTINUOUS
0
LAYER
2
DESKS
70
0
62
3
6
CONTINUOUS
0
LAYER
2
CHAIRS
70
0
62
2
6
CONTINUOUS
0
LAYER
2
STORAGE
70
0
62
6
6
CONTINUOUS
0
LAYER
2
COLLABORATION
70
0
62
5
6
CONTINUOUS
0
LAYER
2
ACCESSORIES
70
0
62
8
6
CONTINUOUS
0
ENDTAB
0
ENDSEC
0
SECTION
2
ENTITIES
0
POLYLINE
8
WALLS
66
1
70
1
0
VERTEX
8
WALLS
10
0.00
20
0.00
30
0.0
0
VERTEX
8
WALLS
10
6600.00
20
0.00
30
0.0
0
VERTEX
8
WALLS
10
6600.00
20
4800.00
30
0.0
0
VERTEX
8
WALLS
10
4200.00
20
4800.00
30
0.0
0
VERTEX
8
WALLS
10
4200.00
20
6200.00
30
0.0
0
VERTEX
8
WALLS
10
0.00
20
6200.00
30
0.0
0
SEQEND
0
LINE
8
DOORS
10
2600.00
20
0.00
30
0.0
11
3500.00
21
0.00
31
0.0
0
TEXT
8
DOORS
10
3050.00
20
50.00
30
0.0
40
150.00
1
D1
0
LINE
8
EGRESS
10
3050.00
20
0.00
30
0.0
11
500.00
21
5500.00
31
0.0
0
POLYLINE
8
DESKS
66
1
70
1
0
VERTEX
8
DESKS
10
2300.00
20
3220.00
30
0.0
0
VERTEX
8
DESKS
10
3500.00
20
3220.00
30
0.0
0
VERTEX
8
DESKS
10
3500.00
20
3820.00
30
0.0
0
VERTEX
8
DESKS
10
2300.00
20
3820.00
30
0.0
0
SEQEND
0
TEXT
8
DESKS
10
2350.00
20
3520.00
30
0.0
40
100.00
1
P001
0
POLYLINE
8
CHAIRS
66
1
70
1
0
VERTEX
8
CHAIRS
10
2600.00
20
4720.00
30
0.0
0
VERTEX
8
CHAIRS
10
3120.00
20
4720.00
30
0.0
0
VERTEX
8
CHAIRS
10
3120.00
20
5240.00
30
0.0
0
VERTEX
8
CHAIRS
10
2600.00
20
5240.00
30
0.0
0
SEQEND
0
TEXT
8
CHAIRS
10
2650.00
20
4980.00
30
0.0
40
100.00
1
P002
0
POLYLINE
8
DESKS
66
1
70
1
0
VERTEX
8
DESKS
10
300.00
20
300.00
30
0.0
0
VERTEX
8
DESKS
10
1500.00
20
300.00
30
0.0
0
VERTEX
8
DESKS
10
1500.00
20
900.00
30
0.0
0
VERTEX
8
DESKS
10
300.00
20
900.00
30
0.0
0
SEQEND
0
TEXT
8
DESKS
10
350.00
20
600.00
30
0.0
40
100.00
1
P003
0
POLYLINE
8
CHAIRS
66
1
70
1
0
VERTEX
8
CHAIRS
10
600.00
20
1800.00
30
0.0
0
VERTEX
8
CHAIRS
10
1120.00
20
1800.00
30
0.0
0
VERTEX
8
CHAIRS
10
1120.00
20
2320.00
30
0.0
0
VERTEX
8
CHAIRS
10
600.00
20
2320.00
30
0.0
0
SEQEND
0
TEXT
8
CHAIRS
10
650.00
20
2060.00
30
0.0
40
100.00
1
P004
0
POLYLINE
8
DESKS
66
1
70
1
0
VERTEX
8
DESKS
10
3700.00
20
300.00
30
0.0
0
VERTEX
8
DESKS
10
4900.00
20
300.00
30
0.0
0
VERTEX
8
DESKS
10
4900.00
20
900.00
30
0.0
0
VERTEX
8
DESKS
10
3700.00
20
900.00
30
0.0
0
SEQEND
0
TEXT
8
DESKS
10
3750.00
20
600.00
30
0.0
40
100.00
1
P005
0
POLYLINE
8
CHAIRS
66
1
70
1
0
VERTEX
8
CHAIRS
10
4000.00
20
1800.00
30
0.0
0
VERTEX
8
CHAIRS
10
4520.00
20
1800.00
30
0.0
0
VERTEX
8
CHAIRS
10
4520.00
20
2320.00
30
0.0
0
VERTEX
8
CHAIRS
10
4000.00
20
2320.00
30
0.0
0
SEQEND
0
TEXT
8
CHAIRS
10
4050.00
20
2060.00
30
0.0
40
100.00
1
P006
0
POLYLINE
8
DESKS
66
1
70
1
0
VERTEX
8
DESKS
10
4900.00
20
300.00
30
0.0
0
VERTEX
8
DESKS
10
6100.00
20
300.00
30
0.0
0
VERTEX
8
DESKS
10
6100.00
20
900.00
30
0.0
0
VERTEX
8
DESKS
10
4900.00
20
900.00
30
0.0
0
SEQEND
0
TEXT
8
DESKS
10
4950.00
20
600.00
30
0.0
40
100.00
1
P007
0
POLYLINE
8
CHAIRS
66
1
70
1
0
VERTEX
8
CHAIRS
10
5500.00
20
1800.00
30
0.0
0
VERTEX
8
CHAIRS
10
6020.00
20
1800.00
30
0.0
0
VERTEX
8
CHAIRS
10
6020.00
20
2320.00
30
0.0
0
VERTEX
8
CHAIRS
10
5500.00
20
2320.00
30
0.0
0
SEQEND
0
TEXT
8
CHAIRS
10
5550.00
20
2060.00
30
0.0
40
100.00
1
P008
0
POLYLINE
8
DESKS
66
1
70
1
0
VERTEX
8
DESKS
10
300.00
20
3220.00
30
0.0
0
VERTEX
8
DESKS
10
900.00
20
3220.00
30
0.0
0
VERTEX
8
DESKS
10
900.00
20
4420.00
30
0.0
0
VERTEX
8
DESKS
10
300.00
20
4420.00
30
0.0
0
SEQEND
0
TEXT
8
DESKS
10
350.00
20
3820.00
30
0.0
40
100.00
1
P009
0
POLYLINE
8
CHAIRS
66
1
70
1
0
VERTEX
8
CHAIRS
10
4800.00
20
4000.00
30
0.0
0
VERTEX
8
CHAIRS
10
5320.00
20
4000.00
30
0.0
0
VERTEX
8
CHAIRS
10
5320.00
20
4520.00
30
0.0
0
VERTEX
8
CHAIRS
10
4800.00
20
4520.00
30
0.0
0
SEQEND
0
TEXT
8
CHAIRS
10
4850.00
20
4260.00
30
0.0
40
100.00
1
P010
0
POLYLINE
8
DESKS
66
1
70
1
0
VERTEX
8
DESKS
10
3500.00
20
4000.00
30
0.0
0
VERTEX
8
DESKS
10
4700.00
20
4000.00
30
0.0
0
VERTEX
8
DESKS
10
4700.00
20
4600.00
30
0.0
0
VERTEX
8
DESKS
10
3500.00
20
4600.00
30
0.0
0
SEQEND
0
TEXT
8
DESKS
10
3550.00
20
4300.00
30
0.0
40
100.00
1
P011
0
POLYLINE
8
DESKS
66
1
70
1
0
VERTEX
8
DESKS
10
5400.00
20
3300.00
30
0.0
0
VERTEX
8
DESKS
10
6600.00
20
3300.00
30
0.0
0
VERTEX
8
DESKS
10
6600.00
20
3900.00
30
0.0
0
VERTEX
8
DESKS
10
5400.00
20
3900.00
30
0.0
0
SEQEND
0
TEXT
8
DESKS
10
5450.00
20
3600.00
30
0.0
40
100.00
1
P012
0
POLYLINE
8
CHAIRS
66
1
70
1
0
VERTEX
8
CHAIRS
10
1200.00
20
5500.00
30
0.0
0
VERTEX
8
CHAIRS
10
1720.00
20
5500.00
30
0.0
0
VERTEX
8
CHAIRS
10
1720.00
20
6020.00
30
0.0
0
VERTEX
8
CHAIRS
10
1200.00
20
6020.00
30
0.0
0
SEQEND
0
TEXT
8
CHAIRS
10
1250.00
20
5760.00
30
0.0
40
100.00
1
P013
0
POLYLINE
8
CHAIRS
66
1
70
1
0
VERTEX
8
CHAIRS
10
2600.00
20
2600.00
30
0.0
0
VERTEX
8
CHAIRS
10
3120.00
20
2600.00
30
0.0
0
VERTEX
8
CHAIRS
10
3120.00
20
3120.00
30
0.0
0
VERTEX
8
CHAIRS
10
2600.00
20
3120.00
30
0.0
0
SEQEND
0
TEXT
8
CHAIRS
10
2650.00
20
2860.00
30
0.0
40
100.00
1
P014
0
POLYLINE
8
CHAIRS
66
1
70
1
0
VERTEX
8
CHAIRS
10
3600.00
20
5500.00
30
0.0
0
VERTEX
8
CHAIRS
10
4120.00
20
5500.00
30
0.0
0
VERTEX
8
CHAIRS
10
4120.00
20
6020.00
30
0.0
0
VERTEX
8
CHAIRS
10
3600.00
20
6020.00
30
0.0
0
SEQEND
0
TEXT
8
CHAIRS
10
3650.00
20
5760.00
30
0.0
40
100.00
1
P015
0
POLYLINE
8
CHAIRS
66
1
70
1
0
VERTEX
8
CHAIRS
10
4700.00
20
2500.00
30
0.0
0
VERTEX
8
CHAIRS
10
5220.00
20
2500.00
30
0.0
0
VERTEX
8
CHAIRS
10
5220.00
20
3020.00
30
0.0
0
VERTEX
8
CHAIRS
10
4700.00
20
3020.00
30
0.0
0
SEQEND
0
TEXT
8
CHAIRS
10
4750.00
20
2760.00
30
0.0
40
100.00
1
P016
0
POLYLINE
8
CHAIRS
66
1
70
1
0
VERTEX
8
CHAIRS
10
2000.00
20
5300.00
30
0.0
0
VERTEX
8
CHAIRS
10
2520.00
20
5300.00
30
0.0
0
VERTEX
8
CHAIRS
10
2520.00
20
5820.00
30
0.0
0
VERTEX
8
CHAIRS
10
2000.00
20
5820.00
30
0.0
0
SEQEND
0
TEXT
8
CHAIRS
10
2050.00
20
5560.00
30
0.0
40
100.00
1
P017
0
POLYLINE
8
COLLABORATION
66
1
70
1
0
VERTEX
8
COLLABORATION
10
3500.00
20
2400.00
30
0.0
0
VERTEX
8
COLLABORATION
10
4700.00
20
2400.00
30
0.0
0
VERTEX
8
COLLABORATION
10
4700.00
20
3100.00
30
0.0
0
VERTEX
8
COLLABORATION
10
3500.00
20
3100.00
30
0.0
0
SEQEND
0
TEXT
8
COLLABORATION
10
3550.00
20
2750.00
30
0.0
40
100.00
1
P018
0
POLYLINE
8
ACCESSORIES
66
1
70
1
0
VERTEX
8
ACCESSORIES
10
1700.00
20
500.00
30
0.0
0
VERTEX
8
ACCESSORIES
10
2000.00
20
500.00
30
0.0
0
VERTEX
8
ACCESSORIES
10
2000.00
20
680.00
30
0.0
0
VERTEX
8
ACCESSORIES
10
1700.00
20
680.00
30
0.0
0
SEQEND
0
TEXT
8
ACCESSORIES
10
1750.00
20
590.00
30
0.0
40
60.00
1
P019
0
POLYLINE
8
ACCESSORIES
66
1
70
1
0
VERTEX
8
ACCESSORIES
10
6300.00
20
500.00
30
0.0
0
VERTEX
8
ACCESSORIES
10
6480.00
20
500.00
30
0.0
0
VERTEX
8
ACCESSORIES
10
6480.00
20
800.00
30
0.0
0
VERTEX
8
ACCESSORIES
10
6300.00
20
800.00
30
0.0
0
SEQEND
0
TEXT
8
ACCESSORIES
10
6350.00
20
650.00
30
0.0
40
100.00
1
P020
0
ENDSEC
0
EOF
