0
SECTION
2
HEADER
9
$ACADVER
1
AC1009
0
ENDSEC
0
SECTION
2
TABLES
0
TABLE
2
LAYER
70
8
0
LAYER
2
WALLS
70
0
62
7
6
CONTINUOUS
0
LAYER
2
DOORS
70
0
62
1
6
CONTINUOUS
0
LAYER
2
EGRESS
70
0
62
4
6
CONTINUOUS
0
LAYER
2
DESKS
70
0
62
3
6
CONTINUOUS
0
LAYER
2
CHAIRS
70
0
62
2
6
CONTINUOUS
0
LAYER
2
STORAGE
70
0
62
6
6
CONTINUOUS
0
LAYER
2
COLLABORATION
70
0
62
5
6
CONTINUOUS
0
LAYER
2
ACCESSORIES
70
0
62
8
6
CONTINUOUS
0
ENDTAB
0
ENDSEC
0
SECTION
2
ENTITIES
0
POLYLINE
8
WALLS
66
1
70
1
0
VERTEX
8
WALLS
10
0.00
20
0.00
30
0.0
0
VERTEX
8
WALLS
10
9000.00
20
0.00
30
0.0
0
VERTEX
8
WALLS
10
9000.00
20
6200.00
30
0.0
0
VERTEX
8
WALLS
10
0.00
20
6200.00
30
0.0
0
SEQEND
0
LINE
8
DOORS
10
0.00
20
700.00
30
0.0
11
0.00
21
1800.00
31
0.0
0
TEXT
8
DOORS
10
0.00
20
1300.00
30
0.0
40
150.00
1
D1
0
LINE
8
EGRESS
10
0.00
20
1250.00
30
0.0
11
8200.00
21
5400.00
31
0.0
0
POLYLINE
8
COLLABORATION
66
1
70
1
0
VERTEX
8
COLLABORATION
10
1600.00
20
600.00
30
0.0
0
VERTEX
8
COLLABORATION
10
3600.00
20
600.00
30
0.0
0
VERTEX
8
COLLABORATION
10
3600.00
20
1300.00
30
0.0
0
VERTEX
8
COLLABORATION
10
1600.00
20
1300.00
30
0.0
0
SEQEND
0
TEXT
8
COLLABORATION
10
1650.00
20
950.00
30
0.0
40
100.00
1
P001
0
POLYLINE
8
COLLABORATION
66
1
70
1
0
VERTEX
8
COLLABORATION
10
3600.00
20
600.00
30
0.0
0
VERTEX
8
COLLABORATION
10
5600.00
20
600.00
30
0.0
0
VERTEX
8
COLLABORATION
10
5600.00
20
1300.00
30
0.0
0
VERTEX
8
COLLABORATION
10
3600.00
20
1300.00
30
0.0
0
SEQEND
0
TEXT
8
COLLABORATION
10
3650.00
20
950.00
30
0.0
40
100.00
1
P002
0
POLYLINE
8
CHAIRS
66
1
70
1
0
VERTEX
8
CHAIRS
10
5600.00
20
600.00
30
0.0
0
VERTEX
8
CHAIRS
10
6120.00
20
600.00
30
0.0
0
VERTEX
8
CHAIRS
10
6120.00
20
1120.00
30
0.0
0
VERTEX
8
CHAIRS
10
5600.00
20
1120.00
30
0.0
0
SEQEND
0
TEXT
8
CHAIRS
10
5650.00
20
860.00
30
0.0
40
100.00
1
P003
0
POLYLINE
8
CHAIRS
66
1
70
1
0
VERTEX
8
CHAIRS
10
600.00
20
5500.00
30
0.0
0
VERTEX
8
CHAIRS
10
1120.00
20
5500.00
30
0.0
0
VERTEX
8
CHAIRS
10
1120.00
20
6020.00
30
0.0
0
VERTEX
8
CHAIRS
10
600.00
20
6020.00
30
0.0
0
SEQEND
0
TEXT
8
CHAIRS
10
650.00
20
5760.00
30
0.0
40
100.00
1
P004
0
POLYLINE
8
CHAIRS
66
1
70
1
0
VERTEX
8
CHAIRS
10
8300.00
20
4200.00
30
0.0
0
VERTEX
8
CHAIRS
10
8820.00
20
4200.00
30
0.0
0
VERTEX
8
CHAIRS
10
8820.00
20
4720.00
30
0.0
0
VERTEX
8
CHAIRS
10
8300.00
20
4720.00
30
0.0
0
SEQEND
0
TEXT
8
CHAIRS
10
8350.00
20
4460.00
30
0.0
40
100.00
1
P005
0
POLYLINE
8
CHAIRS
66
1
70
1
0
VERTEX
8
CHAIRS
10
3800.00
20
4200.00
30
0.0
0
VERTEX
8
CHAIRS
10
4320.00
20
4200.00
30
0.0
0
VERTEX
8
CHAIRS
10
4320.00
20
4720.00
30
0.0
0
VERTEX
8
CHAIRS
10
3800.00
20
4720.00
30
0.0
0
SEQEND
0
TEXT
8
CHAIRS
10
3850.00
20
4460.00
30
0.0
40
100.00
1
P006
0
POLYLINE
8
CHAIRS
66
1
70
1
0
VERTEX
8
CHAIRS
10
2600.00
20
1300.00
30
0.0
0
VERTEX
8
CHAIRS
10
3120.00
20
1300.00
30
0.0
0
VERTEX
8
CHAIRS
10
3120.00
20
1820.00
30
0.0
0
VERTEX
8
CHAIRS
10
2600.00
20
1820.00
30
0.0
0
SEQEND
0
TEXT
8
CHAIRS
10
2650.00
20
1560.00
30
0.0
40
100.00
1
P007
0
POLYLINE
8
CHAIRS
66
1
70
1
0
VERTEX
8
CHAIRS
10
6100.00
20
5500.00
30
0.0
0
VERTEX
8
CHAIRS
10
6620.00
20
5500.00
30
0.0
0
VERTEX
8
CHAIRS
10
6620.00
20
6020.00
30
0.0
0
VERTEX
8
CHAIRS
10
6100.00
20
6020.00
30
0.0
0
SEQEND
0
TEXT
8
CHAIRS
10
6150.00
20
5760.00
30
0.0
40
100.00
1
P008
0
POLYLINE
8
CHAIRS
66
1
70
1
0
VERTEX
8
CHAIRS
10
8300.00
20
1000.00
30
0.0
0
VERTEX
8
CHAIRS
10
8820.00
20
1000.00
30
0.0
0
VERTEX
8
CHAIRS
10
8820.00
20
1520.00
30
0.0
0
VERTEX
8
CHAIRS
10
8300.00
20
1520.00
30
0.0
0
SEQEND
0
TEXT
8
CHAIRS
10
8350.00
20
1260.00
30
0.0
40
100.00
1
P009
0
POLYLINE
8
CHAIRS
66
1
70
1
0
VERTEX
8
CHAIRS
10
6800.00
20
2600.00
30
0.0
0
VERTEX
8
CHAIRS
10
7320.00
20
2600.00
30
0.0
0
VERTEX
8
CHAIRS
10
7320.00
20
3120.00
30
0.0
0
VERTEX
8
CHAIRS
10
6800.00
20
3120.00
30
0.0
0
SEQEND
0
TEXT
8
CHAIRS
10
6850.00
20
2860.00
30
0.0
40
100.00
1
P010
0
POLYLINE
8
CHAIRS
66
1
70
1
0
VERTEX
8
CHAIRS
10
700.00
20
2600.00
30
0.0
0
VERTEX
8
CHAIRS
10
1220.00
20
2600.00
30
0.0
0
VERTEX
8
CHAIRS
10
1220.00
20
3120.00
30
0.0
0
VERTEX
8
CHAIRS
10
700.00
20
3120.00
30
0.0
0
SEQEND
0
TEXT
8
CHAIRS
10
750.00
20
2860.00
30
0.0
40
100.00
1
P011
0
POLYLINE
8
CHAIRS
66
1
70
1
0
VERTEX
8
CHAIRS
10
4500.00
20
2200.00
30
0.0
0
VERTEX
8
CHAIRS
10
5020.00
20
2200.00
30
0.0
0
VERTEX
8
CHAIRS
10
5020.00
20
2720.00
30
0.0
0
VERTEX
8
CHAIRS
10
4500.00
20
2720.00
30
0.0
0
SEQEND
0
TEXT
8
CHAIRS
10
4550.00
20
2460.00
30
0.0
40
100.00
1
P012
0
POLYLINE
8
CHAIRS
66
1
70
1
0
VERTEX
8
CHAIRS
10
2200.00
20
3400.00
30
0.0
0
VERTEX
8
CHAIRS
10
2720.00
20
3400.00
30
0.0
0
VERTEX
8
CHAIRS
10
2720.00
20
3920.00
30
0.0
0
VERTEX
8
CHAIRS
10
2200.00
20
3920.00
30
0.0
0
SEQEND
0
TEXT
8
CHAIRS
10
2250.00
20
3660.00
30
0.0
40
100.00
1
P013
0
POLYLINE
8
CHAIRS
66
1
70
1
0
VERTEX
8
CHAIRS
10
5100.00
20
2300.00
30
0.0
0
VERTEX
8
CHAIRS
10
5620.00
20
2300.00
30
0.0
0
VERTEX
8
CHAIRS
10
5620.00
20
2820.00
30
0.0
0
VERTEX
8
CHAIRS
10
5100.00
20
2820.00
30
0.0
0
SEQEND
0
TEXT
8
CHAIRS
10
5150.00
20
2560.00
30
0.0
40
100.00
1
P014
0
POLYLINE
8
CHAIRS
66
1
70
1
0
VERTEX
8
CHAIRS
10
2600.00
20
5300.00
30
0.0
0
VERTEX
8
CHAIRS
10
3120.00
20
5300.00
30
0.0
0
VERTEX
8
CHAIRS
10
3120.00
20
5820.00
30
0.0
0
VERTEX
8
CHAIRS
10
2600.00
20
5820.00
30
0.0
0
SEQEND
0
TEXT
8
CHAIRS
10
2650.00
20
5560.00
30
0.0
40
100.00
1
P015
0
POLYLINE
8
CHAIRS
66
1
70
1
0
VERTEX
8
CHAIRS
10
1200.00
20
4300.00
30
0.0
0
VERTEX
8
CHAIRS
10
1720.00
20
4300.00
30
0.0
0
VERTEX
8
CHAIRS
10
1720.00
20
4820.00
30
0.0
0
VERTEX
8
CHAIRS
10
1200.00
20
4820.00
30
0.0
0
SEQEND
0
TEXT
8
CHAIRS
10
1250.00
20
4560.00
30
0.0
40
100.00
1
P016
0
POLYLINE
8
CHAIRS
66
1
70
1
0
VERTEX
8
CHAIRS
10
5000.00
20
4800.00
30
0.0
0
VERTEX
8
CHAIRS
10
5520.00
20
4800.00
30
0.0
0
VERTEX
8
CHAIRS
10
5520.00
20
5320.00
30
0.0
0
VERTEX
8
CHAIRS
10
5000.00
20
5320.00
30
0.0
0
SEQEND
0
TEXT
8
CHAIRS
10
5050.00
20
5060.00
30
0.0
40
100.00
1
P017
0
POLYLINE
8
CHAIRS
66
1
70
1
0
VERTEX
8
CHAIRS
10
6200.00
20
1600.00
30
0.0
0
VERTEX
8
CHAIRS
10
6720.00
20
1600.00
30
0.0
0
VERTEX
8
CHAIRS
10
6720.00
20
2120.00
30
0.0
0
VERTEX
8
CHAIRS
10
6200.00
20
2120.00
30
0.0
0
SEQEND
0
TEXT
8
CHAIRS
10
6250.00
20
1860.00
30
0.0
40
100.00
1
P018
0
POLYLINE
8
STORAGE
66
1
70
1
0
VERTEX
8
STORAGE
10
4100.00
20
5700.00
30
0.0
0
VERTEX
8
STORAGE
10
4900.00
20
5700.00
30
0.0
0
VERTEX
8
STORAGE
10
4900.00
20
6100.00
30
0.0
0
VERTEX
8
STORAGE
10
4100.00
20
6100.00
30
0.0
0
SEQEND
0
TEXT
8
STORAGE
10
4150.00
20
5900.00
30
0.0
40
100.00
1
P019
0
POLYLINE
8
STORAGE
66
1
70
1
0
VERTEX
8
STORAGE
10
7200.00
20
600.00
30
0.0
0
VERTEX
8
STORAGE
10
8000.00
20
600.00
30
0.0
0
VERTEX
8
STORAGE
10
8000.00
20
1000.00
30
0.0
0
VERTEX
8
STORAGE
10
7200.00
20
1000.00
30
0.0
0
SEQEND
0
TEXT
8
STORAGE
10
7250.00
20
800.00
30
0.0
40
100.00
1
P020
0
POLYLINE
8
STORAGE
66
1
70
1
0
VERTEX
8
STORAGE
10
7600.00
20
3400.00
30
0.0
0
VERTEX
8
STORAGE
10
8400.00
20
3400.00
30
0.0
0
VERTEX
8
STORAGE
10
8400.00
20
3800.00
30
0.0
0
VERTEX
8
STORAGE
10
7600.00
20
3800.00
30
0.0
0
SEQEND
0
TEXT
8
STORAGE
10
7650.00
20
3600.00
30
0.0
40
100.00
1
P021
0
POLYLINE
8
STORAGE
66
1
70
1
0
VERTEX
8
STORAGE
10
7400.00
20
3800.00
30
0.0
0
VERTEX
8
STORAGE
10
8200.00
20
3800.00
30
0.0
0
VERTEX
8
STORAGE
10
8200.00
20
4200.00
30
0.0
0
VERTEX
8
STORAGE
10
7400.00
20
4200.00
30
0.0
0
SEQEND
0
TEXT
8
STORAGE
10
7450.00
20
4000.00
30
0.0
40
100.00
1
P022
0
ENDSEC
0
EOF
